<?xml version="1.0" encoding="UTF-8"?>
<!DOCTYPE svg PUBLIC "-//W3C//DTD SVG 1.1//EN" "http://www.w3.org/Graphics/SVG/1.1/DTD/svg11.dtd">
<!-- Creator: CorelDRAW 2019 (64-Bit) -->
<svg xmlns="http://www.w3.org/2000/svg" xml:space="preserve" width="6.7145mm" height="6.7145mm" version="1.1" style="shape-rendering:geometricPrecision; text-rendering:geometricPrecision; image-rendering:optimizeQuality; fill-rule:evenodd; clip-rule:evenodd"
viewBox="0 0 22.79 22.79"
 xmlns:xlink="http://www.w3.org/1999/xlink"
 xmlns:xodm="http://www.corel.com/coreldraw/odm/2003">
 <defs>
  <style type="text/css">
   <![CDATA[
    .fil6 {fill:none}
    .fil3 {fill:#F9EEAB}
    .fil9 {fill:#E98B70}
    .fil0 {fill:#17C3B2}
    .fil2 {fill:#227C9D}
    .fil10 {fill:#C27E62}
    .fil12 {fill:#C56F5D}
    .fil4 {fill:#D0E599}
    .fil5 {fill:#D2D795}
    .fil7 {fill:#EE6C4D}
    .fil11 {fill:#F1865B}
    .fil8 {fill:#FCD485}
    .fil1 {fill:#FFEE93}
   ]]>
  </style>
   <clipPath id="id0">
    <path d="M13.88 17.27l0.72 -0c-0.04,-0.13 -0.58,-1.11 -0.8,-1.69 -0.22,-0.59 -0.46,-1.26 -0.63,-1.91 -0.17,-0.67 -0.31,-1.35 -0.42,-2.07 -0.12,-0.76 -0.15,-1.54 -0.24,-2.33l-0.71 -0.01c0.16,2.62 0.58,4.86 1.66,7.19 0.13,0.29 0.31,0.56 0.41,0.83z"/>
   </clipPath>
   <clipPath id="id1">
    <path d="M12.25 7.83c0.25,-0 0.38,-0.02 0.6,0.05 0.76,-0.43 1.37,-1.85 0.84,-3.01 -0.24,-0.52 -0.53,-0.85 -0.97,-1.13 -0.26,-0.16 -1.33,-0.57 -1.71,-0.32 1.19,-0.03 2.66,1.6 2.01,3.31 -0.22,0.58 -0.47,0.76 -0.77,1.09z"/>
   </clipPath>
   <clipPath id="id2">
    <path d="M14.18 18.69l0.73 -0.01c0.11,-0.1 0.22,-0.15 0.22,-0.35 0,-0.21 -0.12,-0.25 -0.22,-0.36l-0.73 0.01c0.33,0.24 0.31,0.47 0,0.71z"/>
   </clipPath>
   <clipPath id="id3">
    <path d="M12.05 8.54l0.73 -0.01c0.27,-0.23 0.31,-0.36 0.07,-0.65 -0.22,-0.07 -0.35,-0.05 -0.6,-0.05l-0.2 -0c0.32,0.25 0.32,0.46 0,0.71z"/>
   </clipPath>
 </defs>
 <g id="Capa_x0020_1">
  <metadata id="CorelCorpID_0Corel-Layer"/>
  <path class="fil0" d="M-0 10.76l0 1.27c0.05,0.15 0.1,0.89 0.14,1.14 0.06,0.37 0.13,0.75 0.23,1.1 0.49,1.79 1.15,3.02 2.27,4.41l0.63 0.7c1.05,0.94 1.64,1.54 3.1,2.24 2.37,1.13 3.89,1.02 4.19,1.16l1.67 0c0.15,-0.07 0.9,-0.12 1.14,-0.17 0.38,-0.07 0.73,-0.14 1.09,-0.25 1.46,-0.42 3.27,-1.3 4.35,-2.32 0.12,-0.11 0.25,-0.19 0.36,-0.31 0.14,-0.14 0.19,-0.21 0.33,-0.34l0.64 -0.7c1.31,-1.61 2.17,-3.4 2.51,-5.5 0.04,-0.25 0.09,-1.03 0.14,-1.18l0 -1.27c-0.05,-0.15 -0.11,-0.96 -0.15,-1.22 -0.63,-3.71 -2.98,-6.83 -6.34,-8.44 -2.29,-1.1 -3.93,-0.98 -4.27,-1.11l-1.27 0c-0.15,0.05 -0.96,0.11 -1.22,0.15 -3.71,0.63 -6.83,2.98 -8.44,6.34 -1.1,2.29 -0.98,3.93 -1.11,4.27z"/>
  <path class="fil1" d="M8.2 17.27l5.68 0c-0.1,-0.27 -0.28,-0.54 -0.41,-0.83 -1.08,-2.32 -1.5,-4.57 -1.66,-7.19l-1.53 0c-0.12,2.15 -0.5,4.34 -1.27,6.29 -0.13,0.32 -0.24,0.57 -0.38,0.87 -0.14,0.29 -0.31,0.57 -0.43,0.85z"/>
  <path class="fil1" d="M9.95 7.88c0.39,-0.1 1.6,-0.05 2.1,-0.05l0.2 0c0.29,-0.33 0.55,-0.51 0.77,-1.09 0.65,-1.71 -0.82,-3.34 -2.01,-3.31 -0.45,-0 -1.09,0.39 -1.29,0.59 -1,1.02 -1.1,2.23 -0.28,3.4 0.11,0.15 0.35,0.38 0.51,0.46z"/>
  <path class="fil2" d="M14.91 18.69l-0.73 0.01 -6.29 -0c-0.18,0.01 -0.6,-0.01 -0.74,0.04 -0.18,0.07 -0.26,0.3 -0.16,0.49 0.16,0.33 0.98,0.19 1.33,0.19l6.1 0c0.39,-0 1.18,0.13 1.37,-0.15 0.13,-0.2 0.03,-0.44 -0.12,-0.52 -0.18,-0.1 -0.53,-0.05 -0.76,-0.05z"/>
  <g style="clip-path:url(#id0)">
   <polygon class="fil3" points="-74.39,-76.94 100.79,-76.94 100.79,103.47 -74.39,103.47 "/>
   <g id="Capa_x0020_1_0">
    <metadata id="CorelCorpID_1Corel-Layer"/>
    <path id="1" class="fil4" d="M-0 10.76l0 1.27c0.05,0.15 0.1,0.89 0.14,1.14 0.06,0.37 0.13,0.75 0.23,1.1 0.49,1.79 1.15,3.02 2.27,4.41l0.63 0.7c1.05,0.94 1.64,1.54 3.1,2.24 2.37,1.13 3.89,1.02 4.19,1.16l1.67 0c0.15,-0.07 0.9,-0.12 1.14,-0.17 0.38,-0.07 0.73,-0.14 1.09,-0.25 1.46,-0.42 3.27,-1.3 4.35,-2.32 0.12,-0.11 0.25,-0.19 0.36,-0.31 0.14,-0.14 0.19,-0.21 0.33,-0.34l0.64 -0.7c1.31,-1.61 2.17,-3.4 2.51,-5.5 0.04,-0.25 0.09,-1.03 0.14,-1.18l0 -1.27c-0.05,-0.15 -0.11,-0.96 -0.15,-1.22 -0.63,-3.71 -2.98,-6.83 -6.34,-8.44 -2.29,-1.1 -3.93,-0.98 -4.27,-1.11l-1.27 0c-0.15,0.05 -0.96,0.11 -1.22,0.15 -3.71,0.63 -6.83,2.98 -8.44,6.34 -1.1,2.29 -0.98,3.93 -1.11,4.27z"/>
    <path class="fil1" d="M8.2 17.27l5.68 0c-0.1,-0.27 -0.28,-0.54 -0.41,-0.83 -1.08,-2.32 -1.5,-4.57 -1.66,-7.19l-1.53 0c-0.12,2.15 -0.5,4.34 -1.27,6.29 -0.13,0.32 -0.24,0.57 -0.38,0.87 -0.14,0.29 -0.31,0.57 -0.43,0.85z"/>
    <path class="fil1" d="M9.95 7.88c0.39,-0.1 1.6,-0.05 2.1,-0.05l0.2 0c0.29,-0.33 0.55,-0.51 0.77,-1.09 0.65,-1.71 -0.82,-3.34 -2.01,-3.31 -0.45,-0 -1.09,0.39 -1.29,0.59 -1,1.02 -1.1,2.23 -0.28,3.4 0.11,0.15 0.35,0.38 0.51,0.46z"/>
    <path class="fil5" d="M14.91 18.69l-0.73 0.01 -6.29 -0c-0.18,0.01 -0.6,-0.01 -0.74,0.04 -0.18,0.07 -0.26,0.3 -0.16,0.49 0.16,0.33 0.98,0.19 1.33,0.19l6.1 0c0.39,-0 1.18,0.13 1.37,-0.15 0.13,-0.2 0.03,-0.44 -0.12,-0.52 -0.18,-0.1 -0.53,-0.05 -0.76,-0.05z"/>
   </g>
  </g>
  <path class="fil6" d="M13.88 17.27l0.72 -0c-0.04,-0.13 -0.58,-1.11 -0.8,-1.69 -0.22,-0.59 -0.46,-1.26 -0.63,-1.91 -0.17,-0.67 -0.31,-1.35 -0.42,-2.07 -0.12,-0.76 -0.15,-1.54 -0.24,-2.33l-0.71 -0.01c0.16,2.62 0.58,4.86 1.66,7.19 0.13,0.29 0.31,0.56 0.41,0.83z"/>
  <path class="fil2" d="M7.89 17.97l6.29 0.01 0.73 -0.01c0.4,-0.32 0.28,-0.72 -0.32,-0.71l-0.72 0 -5.68 -0c-0.23,0.01 -0.43,0 -0.51,0.22 -0.1,0.25 0.05,0.39 0.2,0.49z"/>
  <path class="fil7" d="M7.89 18.69l6.29 0c0.31,-0.24 0.33,-0.47 0,-0.71l-6.29 -0.01 -0.15 0.14c-0.18,0.23 -0.04,0.43 0.15,0.57z"/>
  <g style="clip-path:url(#id1)">
   <polygon class="fil3" points="-75.19,-82.85 100.09,-82.85 100.09,94.08 -75.19,94.08 "/>
   <g id="Capa_x0020_1_1">
    <metadata id="CorelCorpID_2Corel-Layer"/>
    <path id="1" class="fil4" d="M-0 10.76l0 1.27c0.05,0.15 0.1,0.89 0.14,1.14 0.06,0.37 0.13,0.75 0.23,1.1 0.49,1.79 1.15,3.02 2.27,4.41l0.63 0.7c1.05,0.94 1.64,1.54 3.1,2.24 2.37,1.13 3.89,1.02 4.19,1.16l1.67 0c0.15,-0.07 0.9,-0.12 1.14,-0.17 0.38,-0.07 0.73,-0.14 1.09,-0.25 1.46,-0.42 3.27,-1.3 4.35,-2.32 0.12,-0.11 0.25,-0.19 0.36,-0.31 0.14,-0.14 0.19,-0.21 0.33,-0.34l0.64 -0.7c1.31,-1.61 2.17,-3.4 2.51,-5.5 0.04,-0.25 0.09,-1.03 0.14,-1.18l0 -1.27c-0.05,-0.15 -0.11,-0.96 -0.15,-1.22 -0.63,-3.71 -2.98,-6.83 -6.34,-8.44 -2.29,-1.1 -3.93,-0.98 -4.27,-1.11l-1.27 0c-0.15,0.05 -0.96,0.11 -1.22,0.15 -3.71,0.63 -6.83,2.98 -8.44,6.34 -1.1,2.29 -0.98,3.93 -1.11,4.27z"/>
    <path class="fil1" d="M8.2 17.27l5.68 0c-0.1,-0.27 -0.28,-0.54 -0.41,-0.83 -1.08,-2.32 -1.5,-4.57 -1.66,-7.19l-1.53 0c-0.12,2.15 -0.5,4.34 -1.27,6.29 -0.13,0.32 -0.24,0.57 -0.38,0.87 -0.14,0.29 -0.31,0.57 -0.43,0.85z"/>
    <path class="fil1" d="M9.95 7.88c0.39,-0.1 1.6,-0.05 2.1,-0.05l0.2 0c0.29,-0.33 0.55,-0.51 0.77,-1.09 0.65,-1.71 -0.82,-3.34 -2.01,-3.31 -0.45,-0 -1.09,0.39 -1.29,0.59 -1,1.02 -1.1,2.23 -0.28,3.4 0.11,0.15 0.35,0.38 0.51,0.46z"/>
    <path class="fil5" d="M14.91 18.69l-0.73 0.01 -6.29 -0c-0.18,0.01 -0.6,-0.01 -0.74,0.04 -0.18,0.07 -0.26,0.3 -0.16,0.49 0.16,0.33 0.98,0.19 1.33,0.19l6.1 0c0.39,-0 1.18,0.13 1.37,-0.15 0.13,-0.2 0.03,-0.44 -0.12,-0.52 -0.18,-0.1 -0.53,-0.05 -0.76,-0.05z"/>
    <path class="fil6" d="M13.88 17.27l0.72 -0c-0.04,-0.13 -0.58,-1.11 -0.8,-1.69 -0.22,-0.59 -0.46,-1.26 -0.63,-1.91 -0.17,-0.67 -0.31,-1.35 -0.42,-2.07 -0.12,-0.76 -0.15,-1.54 -0.24,-2.33l-0.71 -0.01c0.16,2.62 0.58,4.86 1.66,7.19 0.13,0.29 0.31,0.56 0.41,0.83z"/>
    <path class="fil5" d="M7.89 17.97l6.29 0.01 0.73 -0.01c0.4,-0.32 0.28,-0.72 -0.32,-0.71l-0.72 0 -5.68 -0c-0.23,0.01 -0.43,0 -0.51,0.22 -0.1,0.25 0.05,0.39 0.2,0.49z"/>
    <path class="fil8" d="M7.89 18.69l6.29 0c0.31,-0.24 0.33,-0.47 0,-0.71l-6.29 -0.01 -0.15 0.14c-0.18,0.23 -0.04,0.43 0.15,0.57z"/>
   </g>
  </g>
  <path class="fil6" d="M12.25 7.83c0.25,-0 0.38,-0.02 0.6,0.05 0.76,-0.43 1.37,-1.85 0.84,-3.01 -0.24,-0.52 -0.53,-0.85 -0.97,-1.13 -0.26,-0.16 -1.33,-0.57 -1.71,-0.32 1.19,-0.03 2.66,1.6 2.01,3.31 -0.22,0.58 -0.47,0.76 -0.77,1.09z"/>
  <path class="fil2" d="M10.28 9.26l1.53 -0 0.71 0.01c0.33,-0 0.73,0.07 0.82,-0.25 0.12,-0.41 -0.24,-0.47 -0.56,-0.48l-0.73 0.01 -2.02 -0c-0.33,0.01 -0.68,0.06 -0.57,0.47 0.08,0.32 0.49,0.25 0.82,0.25z"/>
  <path class="fil7" d="M9.95 7.88c-0.26,0.29 -0.19,0.46 0.08,0.66l2.02 0c0.32,-0.25 0.32,-0.46 0,-0.71 -0.49,0 -1.71,-0.05 -2.1,0.05z"/>
  <g style="clip-path:url(#id2)">
   <polygon class="fil9" points="-72.02,-68.23 101.33,-68.23 101.33,104.89 -72.02,104.89 "/>
   <g id="Capa_x0020_1_2">
    <metadata id="CorelCorpID_3Corel-Layer"/>
    <path id="1" class="fil10" d="M-0 10.76l0 1.27c0.05,0.15 0.1,0.89 0.14,1.14 0.06,0.37 0.13,0.75 0.23,1.1 0.49,1.79 1.15,3.02 2.27,4.41l0.63 0.7c1.05,0.94 1.64,1.54 3.1,2.24 2.37,1.13 3.89,1.02 4.19,1.16l1.67 0c0.15,-0.07 0.9,-0.12 1.14,-0.17 0.38,-0.07 0.73,-0.14 1.09,-0.25 1.46,-0.42 3.27,-1.3 4.35,-2.32 0.12,-0.11 0.25,-0.19 0.36,-0.31 0.14,-0.14 0.19,-0.21 0.33,-0.34l0.64 -0.7c1.31,-1.61 2.17,-3.4 2.51,-5.5 0.04,-0.25 0.09,-1.03 0.14,-1.18l0 -1.27c-0.05,-0.15 -0.11,-0.96 -0.15,-1.22 -0.63,-3.71 -2.98,-6.83 -6.34,-8.44 -2.29,-1.1 -3.93,-0.98 -4.27,-1.11l-1.27 0c-0.15,0.05 -0.96,0.11 -1.22,0.15 -3.71,0.63 -6.83,2.98 -8.44,6.34 -1.1,2.29 -0.98,3.93 -1.11,4.27z"/>
    <path class="fil11" d="M8.2 17.27l5.68 0c-0.1,-0.27 -0.28,-0.54 -0.41,-0.83 -1.08,-2.32 -1.5,-4.57 -1.66,-7.19l-1.53 0c-0.12,2.15 -0.5,4.34 -1.27,6.29 -0.13,0.32 -0.24,0.57 -0.38,0.87 -0.14,0.29 -0.31,0.57 -0.43,0.85z"/>
    <path class="fil11" d="M9.95 7.88c0.39,-0.1 1.6,-0.05 2.1,-0.05l0.2 0c0.29,-0.33 0.55,-0.51 0.77,-1.09 0.65,-1.71 -0.82,-3.34 -2.01,-3.31 -0.45,-0 -1.09,0.39 -1.29,0.59 -1,1.02 -1.1,2.23 -0.28,3.4 0.11,0.15 0.35,0.38 0.51,0.46z"/>
    <path class="fil12" d="M14.91 18.69l-0.73 0.01 -6.29 -0c-0.18,0.01 -0.6,-0.01 -0.74,0.04 -0.18,0.07 -0.26,0.3 -0.16,0.49 0.16,0.33 0.98,0.19 1.33,0.19l6.1 0c0.39,-0 1.18,0.13 1.37,-0.15 0.13,-0.2 0.03,-0.44 -0.12,-0.52 -0.18,-0.1 -0.53,-0.05 -0.76,-0.05z"/>
    <path class="fil6" d="M13.88 17.27l0.72 -0c-0.04,-0.13 -0.58,-1.11 -0.8,-1.69 -0.22,-0.59 -0.46,-1.26 -0.63,-1.91 -0.17,-0.67 -0.31,-1.35 -0.42,-2.07 -0.12,-0.76 -0.15,-1.54 -0.24,-2.33l-0.71 -0.01c0.16,2.62 0.58,4.86 1.66,7.19 0.13,0.29 0.31,0.56 0.41,0.83z"/>
    <path class="fil12" d="M7.89 17.97l6.29 0.01 0.73 -0.01c0.4,-0.32 0.28,-0.72 -0.32,-0.71l-0.72 0 -5.68 -0c-0.23,0.01 -0.43,0 -0.51,0.22 -0.1,0.25 0.05,0.39 0.2,0.49z"/>
    <path class="fil7" d="M7.89 18.69l6.29 0c0.31,-0.24 0.33,-0.47 0,-0.71l-6.29 -0.01 -0.15 0.14c-0.18,0.23 -0.04,0.43 0.15,0.57z"/>
    <path class="fil6" d="M12.25 7.83c0.25,-0 0.38,-0.02 0.6,0.05 0.76,-0.43 1.37,-1.85 0.84,-3.01 -0.24,-0.52 -0.53,-0.85 -0.97,-1.13 -0.26,-0.16 -1.33,-0.57 -1.71,-0.32 1.19,-0.03 2.66,1.6 2.01,3.31 -0.22,0.58 -0.47,0.76 -0.77,1.09z"/>
    <path class="fil12" d="M10.28 9.26l1.53 -0 0.71 0.01c0.33,-0 0.73,0.07 0.82,-0.25 0.12,-0.41 -0.24,-0.47 -0.56,-0.48l-0.73 0.01 -2.02 -0c-0.33,0.01 -0.68,0.06 -0.57,0.47 0.08,0.32 0.49,0.25 0.82,0.25z"/>
    <path class="fil7" d="M9.95 7.88c-0.26,0.29 -0.19,0.46 0.08,0.66l2.02 0c0.32,-0.25 0.32,-0.46 0,-0.71 -0.49,0 -1.71,-0.05 -2.1,0.05z"/>
   </g>
  </g>
  <path class="fil6" d="M14.18 18.69l0.73 -0.01c0.11,-0.1 0.22,-0.15 0.22,-0.35 0,-0.21 -0.12,-0.25 -0.22,-0.36l-0.73 0.01c0.33,0.24 0.31,0.47 0,0.71z"/>
  <g style="clip-path:url(#id3)">
   <polygon class="fil9" points="-74.15,-78.37 99.21,-78.37 99.21,94.74 -74.15,94.74 "/>
   <g id="Capa_x0020_1_3">
    <metadata id="CorelCorpID_4Corel-Layer"/>
    <path id="1" class="fil10" d="M-0 10.76l0 1.27c0.05,0.15 0.1,0.89 0.14,1.14 0.06,0.37 0.13,0.75 0.23,1.1 0.49,1.79 1.15,3.02 2.27,4.41l0.63 0.7c1.05,0.94 1.64,1.54 3.1,2.24 2.37,1.13 3.89,1.02 4.19,1.16l1.67 0c0.15,-0.07 0.9,-0.12 1.14,-0.17 0.38,-0.07 0.73,-0.14 1.09,-0.25 1.46,-0.42 3.27,-1.3 4.35,-2.32 0.12,-0.11 0.25,-0.19 0.36,-0.31 0.14,-0.14 0.19,-0.21 0.33,-0.34l0.64 -0.7c1.31,-1.61 2.17,-3.4 2.51,-5.5 0.04,-0.25 0.09,-1.03 0.14,-1.18l0 -1.27c-0.05,-0.15 -0.11,-0.96 -0.15,-1.22 -0.63,-3.71 -2.98,-6.83 -6.34,-8.44 -2.29,-1.1 -3.93,-0.98 -4.27,-1.11l-1.27 0c-0.15,0.05 -0.96,0.11 -1.22,0.15 -3.71,0.63 -6.83,2.98 -8.44,6.34 -1.1,2.29 -0.98,3.93 -1.11,4.27z"/>
    <path class="fil11" d="M8.2 17.27l5.68 0c-0.1,-0.27 -0.28,-0.54 -0.41,-0.83 -1.08,-2.32 -1.5,-4.57 -1.66,-7.19l-1.53 0c-0.12,2.15 -0.5,4.34 -1.27,6.29 -0.13,0.32 -0.24,0.57 -0.38,0.87 -0.14,0.29 -0.31,0.57 -0.43,0.85z"/>
    <path class="fil11" d="M9.95 7.88c0.39,-0.1 1.6,-0.05 2.1,-0.05l0.2 0c0.29,-0.33 0.55,-0.51 0.77,-1.09 0.65,-1.71 -0.82,-3.34 -2.01,-3.31 -0.45,-0 -1.09,0.39 -1.29,0.59 -1,1.02 -1.1,2.23 -0.28,3.4 0.11,0.15 0.35,0.38 0.51,0.46z"/>
    <path class="fil12" d="M14.91 18.69l-0.73 0.01 -6.29 -0c-0.18,0.01 -0.6,-0.01 -0.74,0.04 -0.18,0.07 -0.26,0.3 -0.16,0.49 0.16,0.33 0.98,0.19 1.33,0.19l6.1 0c0.39,-0 1.18,0.13 1.37,-0.15 0.13,-0.2 0.03,-0.44 -0.12,-0.52 -0.18,-0.1 -0.53,-0.05 -0.76,-0.05z"/>
    <path class="fil6" d="M13.88 17.27l0.72 -0c-0.04,-0.13 -0.58,-1.11 -0.8,-1.69 -0.22,-0.59 -0.46,-1.26 -0.63,-1.91 -0.17,-0.67 -0.31,-1.35 -0.42,-2.07 -0.12,-0.76 -0.15,-1.54 -0.24,-2.33l-0.71 -0.01c0.16,2.62 0.58,4.86 1.66,7.19 0.13,0.29 0.31,0.56 0.41,0.83z"/>
    <path class="fil12" d="M7.89 17.97l6.29 0.01 0.73 -0.01c0.4,-0.32 0.28,-0.72 -0.32,-0.71l-0.72 0 -5.68 -0c-0.23,0.01 -0.43,0 -0.51,0.22 -0.1,0.25 0.05,0.39 0.2,0.49z"/>
    <path class="fil7" d="M7.89 18.69l6.29 0c0.31,-0.24 0.33,-0.47 0,-0.71l-6.29 -0.01 -0.15 0.14c-0.18,0.23 -0.04,0.43 0.15,0.57z"/>
    <path class="fil6" d="M12.25 7.83c0.25,-0 0.38,-0.02 0.6,0.05 0.76,-0.43 1.37,-1.85 0.84,-3.01 -0.24,-0.52 -0.53,-0.85 -0.97,-1.13 -0.26,-0.16 -1.33,-0.57 -1.71,-0.32 1.19,-0.03 2.66,1.6 2.01,3.31 -0.22,0.58 -0.47,0.76 -0.77,1.09z"/>
    <path class="fil12" d="M10.28 9.26l1.53 -0 0.71 0.01c0.33,-0 0.73,0.07 0.82,-0.25 0.12,-0.41 -0.24,-0.47 -0.56,-0.48l-0.73 0.01 -2.02 -0c-0.33,0.01 -0.68,0.06 -0.57,0.47 0.08,0.32 0.49,0.25 0.82,0.25z"/>
    <path class="fil7" d="M9.95 7.88c-0.26,0.29 -0.19,0.46 0.08,0.66l2.02 0c0.32,-0.25 0.32,-0.46 0,-0.71 -0.49,0 -1.71,-0.05 -2.1,0.05z"/>
    <path class="fil6" d="M14.18 18.69l0.73 -0.01c0.11,-0.1 0.22,-0.15 0.22,-0.35 0,-0.21 -0.12,-0.25 -0.22,-0.36l-0.73 0.01c0.33,0.24 0.31,0.47 0,0.71z"/>
   </g>
  </g>
  <path class="fil6" d="M12.05 8.54l0.73 -0.01c0.27,-0.23 0.31,-0.36 0.07,-0.65 -0.22,-0.07 -0.35,-0.05 -0.6,-0.05l-0.2 -0c0.32,0.25 0.32,0.46 0,0.71z"/>
 </g>
</svg>
