<?xml version="1.0" encoding="UTF-8"?>
<!DOCTYPE svg PUBLIC "-//W3C//DTD SVG 1.1//EN" "http://www.w3.org/Graphics/SVG/1.1/DTD/svg11.dtd">
<!-- Creator: CorelDRAW 2019 (64-Bit) -->
<svg xmlns="http://www.w3.org/2000/svg" xml:space="preserve" width="5.2196mm" height="3.1208mm" version="1.1" style="shape-rendering:geometricPrecision; text-rendering:geometricPrecision; image-rendering:optimizeQuality; fill-rule:evenodd; clip-rule:evenodd"
viewBox="0 0 3.75 2.24"
 xmlns:xlink="http://www.w3.org/1999/xlink"
 xmlns:xodm="http://www.corel.com/coreldraw/odm/2003">
 <defs>
  <style type="text/css">
   <![CDATA[
    .fil0 {fill:#FEFEFE}
    .fil1 {fill:#EE6C4D}
   ]]>
  </style>
 </defs>
 <g id="Capa_x0020_1">
  <metadata id="CorelCorpID_0Corel-Layer"/>
  <g id="_2397914061616">
   <g>
    <path class="fil0" d="M0.1 0.63l-0 -0 0 0zm3.38 -0.26c0,0.1 -0.04,0.2 -0.11,0.27l-1.3 1.4c-0.06,0.12 -0.19,0.2 -0.33,0.2 -0.13,0 -0.25,-0.07 -0.32,-0.17l-1.32 -1.44 -0 -0 -0 -0c-0.06,-0.07 -0.1,-0.16 -0.1,-0.25 0,-0.21 0.17,-0.38 0.38,-0.38l2.72 0c0.21,0 0.38,0.17 0.38,0.38z"/>
   </g>
   <g>
    <path class="fil1" d="M0.37 0.63l-0 -0 0 0zm3.38 -0.26c0,0.1 -0.04,0.2 -0.11,0.27l-1.3 1.4c-0.06,0.12 -0.19,0.2 -0.33,0.2 -0.13,0 -0.25,-0.07 -0.32,-0.17l-1.32 -1.44 -0 -0 -0 -0c-0.06,-0.07 -0.1,-0.16 -0.1,-0.25 0,-0.21 0.17,-0.38 0.38,-0.38l2.72 0c0.21,0 0.38,0.17 0.38,0.38z"/>
   </g>
  </g>
 </g>
</svg>
